# xmcd
#
# Track frame offsets: 
#        150
#        14490
#        33140
#        46230
#        51709
#        65766
#        76909
#        89127
#        99658
#        110974
#        128517
#        142752
#        154605
#        168329
#        184969
#
# Disc length: 2601 seconds
#
# Revision: 4
# Processed by: cddbd v1.5.2PL0 Copyright (c) Steve Scherf et al.
# Submitted via: ExactAudioCopy v1.1
#
DISCID=ce0a270f
DTITLE=Koerner, Ray and Glover - The Return Of Koerner, Ray and Glover
DYEAR=1965
DGENRE=Blues
TTITLE0=I Want To See My Baby (stereo)
TTITLE1=Titanic (stereo)
TTITLE2=You've Got To Be Careful (stereo)
TTITLE3=Looky, Looky Yonder (stereo)
TTITLE4=Statesboro Blues (stereo)
TTITLE5=Eugene C. (stereo)
TTITLE6=Goin' To The Country (stereo)
TTITLE7=The Boys Was Shootin' It Out Last Night (stereo)
TTITLE8=Poor Howard (stereo)
TTITLE9=I Don't Want To Be Terrified (stereo)
TTITLE10=Don't Let Your Right Hand Know What Your Left Hand Do (stereo
TTITLE10=)
TTITLE11=Lonesome Road (stereo)
TTITLE12=England Blues (stereo)
TTITLE13=Packin' Trunk (stereo)
TTITLE14=John Hardy (stereo)
EXTD=
EXTT0=
EXTT1=
EXTT2=
EXTT3=
EXTT4=
EXTT5=
EXTT6=
EXTT7=
EXTT8=
EXTT9=
EXTT10=
EXTT11=
EXTT12=
EXTT13=
EXTT14=
PLAYORDER=
